<?xml version="1.0" encoding="UTF-8"?>
<svg width="250px" height="168px" viewBox="0 0 250 168" version="1.1" xmlns="http://www.w3.org/2000/svg" xmlns:xlink="http://www.w3.org/1999/xlink">
    <!-- Generator: Sketch 48.2 (47327) - http://www.bohemiancoding.com/sketch -->
    <title>ic_computer_black_48px</title>
    <desc>Created with Sketch.</desc>
    <defs></defs>
    <g id="Page-1" stroke="none" stroke-width="1" fill="none" fill-rule="evenodd">
        <g id="ic_computer_black_48px" transform="translate(0.000000, -41.000000)">
            <polygon id="Shape" points="0 0 250 0 250 250 0 250"></polygon>
            <path d="M208.333333,187.5 C219.791667,187.5 229.0625,178.125 229.0625,166.666667 L229.166667,62.5 C229.166667,51.0416667 219.791667,41.6666667 208.333333,41.6666667 L41.6666667,41.6666667 C30.2083333,41.6666667 20.8333333,51.0416667 20.8333333,62.5 L20.8333333,166.666667 C20.8333333,178.125 30.2083333,187.5 41.6666667,187.5 L0,187.5 L0,208.333333 L250,208.333333 L250,187.5 L208.333333,187.5 Z M41.6666667,62.5 L208.333333,62.5 L208.333333,166.666667 L41.6666667,166.666667 L41.6666667,62.5 Z" id="Shape" fill="#FFFFFF" fill-rule="nonzero"></path>
        </g>
    </g>
</svg>