<?xml version="1.0" encoding="UTF-8"?>
<svg width="210px" height="210px" viewBox="0 0 210 210" version="1.1" xmlns="http://www.w3.org/2000/svg" xmlns:xlink="http://www.w3.org/1999/xlink">
    <!-- Generator: Sketch 48.2 (47327) - http://www.bohemiancoding.com/sketch -->
    <title>info</title>
    <desc>Created with Sketch.</desc>
    <defs></defs>
    <g id="Available-Copy" stroke="none" stroke-width="1" fill="none" fill-rule="evenodd" transform="translate(-297.000000, -299.000000)">
        <g id="info" transform="translate(277.000000, 279.000000)">
            <polygon id="Shape" points="0 0 250 0 250 250 0 250"></polygon>
            <path d="M114.583333,177.083333 L135.416667,177.083333 L135.416667,114.583333 L114.583333,114.583333 L114.583333,177.083333 Z M125,20.8333333 C67.5,20.8333333 20.8333333,67.5 20.8333333,125 C20.8333333,182.5 67.5,229.166667 125,229.166667 C182.5,229.166667 229.166667,182.5 229.166667,125 C229.166667,67.5 182.5,20.8333333 125,20.8333333 Z M125,208.333333 C79.0625,208.333333 41.6666667,170.9375 41.6666667,125 C41.6666667,79.0625 79.0625,41.6666667 125,41.6666667 C170.9375,41.6666667 208.333333,79.0625 208.333333,125 C208.333333,170.9375 170.9375,208.333333 125,208.333333 Z M114.583333,93.75 L135.416667,93.75 L135.416667,72.9166667 L114.583333,72.9166667 L114.583333,93.75 Z" id="Shape" fill="#000000" fill-rule="nonzero"></path>
        </g>
    </g>
</svg>