<?xml version="1.0" encoding="UTF-8"?>
<svg width="433px" height="90px" viewBox="0 0 433 90" version="1.1" xmlns="http://www.w3.org/2000/svg" xmlns:xlink="http://www.w3.org/1999/xlink">
    <!-- Generator: Sketch 48.2 (47327) - http://www.bohemiancoding.com/sketch -->
    <title>plantronics</title>
    <desc>Created with Sketch.</desc>
    <defs></defs>
    <g id="Available-Copy" stroke="none" stroke-width="1" fill="none" fill-rule="evenodd" transform="translate(-600.000000, -773.000000)">
        <g id="plantronics" transform="translate(600.000000, 773.000000)">
            <rect id="Rectangle-4-Copy" fill="#FF4612" x="0" y="0" width="433" height="90"></rect>
            <path d="M366.794392,50.5934682 L365.174363,50.5934682 L365.174363,48.4006584 L366.933313,48.4006584 C367.694171,48.4006584 368.527695,48.5203439 368.527695,49.4628674 C368.527695,50.5072662 367.601557,50.5934682 366.793679,50.5934682 L366.794392,50.5934682 Z M368.630995,48.1456142 C368.152965,47.7908321 367.615805,47.7908321 367.129226,47.7908321 L364.392845,47.7908321 L364.392845,54.0764596 L365.1765,54.0764596 L365.1765,51.1904711 L366.547184,51.1904711 L368.300435,54.0764596 L369.235122,54.0764596 L367.382133,51.1904711 C368.442205,51.1861966 369.327023,50.7124414 369.327023,49.4756909 L369.327023,49.4372205 C369.327023,48.937106 369.037071,48.3985211 368.633132,48.1420521 L368.630995,48.1456142 Z M366.462407,55.7256978 C363.856397,55.7256978 361.735541,53.6255017 361.735541,50.9525248 C361.735541,48.329417 363.854972,46.1921754 366.462407,46.1921754 C369.088365,46.1921754 371.165051,48.3301294 371.165051,50.9525248 C371.166476,53.6262141 369.088365,55.7256978 366.462407,55.7256978 Z M366.462407,45.3757491 C363.393328,45.3757491 360.919827,47.8535245 360.919827,50.9475379 C360.919827,54.0671983 363.39689,56.5549475 366.462407,56.5549475 C369.510114,56.5549475 372,54.0664859 372,50.9475379 C372,47.8535245 369.510114,45.3757491 366.462407,45.3757491 Z M227.309456,38.9162925 C227.309456,37.4857655 228.55333,36.3152695 230.031589,36.3152695 L238.964547,36.3152695 C240.440668,36.3152695 241.684543,37.4857655 241.684543,38.9162925 L241.684543,49.8318978 C241.684543,51.290209 240.464178,52.460705 238.964547,52.460705 L230.031589,52.460705 C228.527683,52.460705 227.309456,51.2909214 227.309456,49.8318978 L227.309456,38.9162925 Z M226.786544,56.2486095 L242.235951,56.2486095 C245.828654,56.2486095 249.413521,53.8057424 249.413521,49.1251833 L249.413521,39.7761761 C249.413521,35.1063031 245.780922,32.6591615 242.202468,32.6591615 L226.786544,32.6591615 C223.213788,32.6591615 219.576915,35.107728 219.576915,39.7761761 L219.576915,49.1251833 C219.576915,53.8043175 223.214501,56.2478971 226.786544,56.2478971 L226.786544,56.2486095 Z M165.223299,32.6577367 L143.932811,32.6577367 L143.932811,56.2436226 L151.338353,56.2436226 L151.338353,36.3152695 L162.621564,36.3152695 C163.930981,36.3152695 165.03166,37.2898517 165.03166,38.6270525 L165.03166,56.240773 L172.426516,56.240773 L172.426516,39.7576533 C172.426516,35.8408018 169.201418,32.6570243 165.221875,32.6570243 L165.224724,32.6570243 L165.223299,32.6577367 Z M275.824128,32.6577367 L254.531502,32.6577367 L254.531502,56.2436226 L261.941319,56.2436226 L261.941319,36.3152695 L273.228092,36.3152695 C274.525397,36.3152695 275.64175,37.2898517 275.64175,38.6270525 L275.64175,56.240773 L283.035893,56.240773 L283.035893,39.7576533 C283.035893,35.8408018 279.805809,32.6570243 275.82484,32.6570243 L275.824128,32.6577367 Z M96.5423279,37.6645813 L96.5423279,56.2535964 L103.936471,56.2535964 L103.936471,25.0021372 L96.5423279,25.0021372 L96.5423279,37.6652938 L96.5423279,37.6645813 Z M206.240528,56.2486095 L206.240528,38.6676601 C206.240528,37.3618055 207.331234,36.3159819 208.671284,36.3159819 L216.757894,36.3159819 L216.757894,32.6577367 L206.042477,32.6577367 C202.064358,32.6577367 198.833561,35.8415143 198.833561,39.7647774 L198.833561,56.2478971 L206.239815,56.2493219 L206.240528,56.2486095 Z M68.394856,36.3202564 L80.8528373,36.3202564 C82.3503312,36.3202564 83.5778203,37.5000137 83.5778203,38.9590373 L83.5778203,49.8318978 C83.5778203,51.278098 82.3503312,52.460705 80.8528373,52.460705 L68.394856,52.460705 L68.394856,36.3209688 L68.394856,36.3202564 Z M68.394856,56.2436226 L83.6583231,56.2436226 C87.6407166,56.2436226 90.834468,53.0434595 90.834468,49.1201964 L90.834468,39.7768885 C90.834468,35.8472136 87.6022463,32.6598739 83.6255521,32.6598739 L61.0028497,32.6598739 L61,64.8951767 L68.394856,64.8951767 L68.394856,56.2436226 Z M178.016828,49.1629412 C178.016828,53.1225375 181.174958,56.252884 185.190123,56.252884 L194.269838,56.252884 L194.269838,52.460705 L187.583121,52.460705 C186.362044,52.460705 185.41952,51.4704497 185.41952,50.2009282 L185.41952,36.3152695 L194.269838,36.3152695 L194.269838,32.6570243 L185.430206,32.6570243 L185.423082,25 L178.016828,25 L178.016828,49.1615164 L178.016115,49.1629412 L178.016828,49.1629412 Z M296.090877,42.568126 L296.090877,32.663436 L288.74874,32.663436 L288.74874,56.2592957 L296.090877,56.2592957 L296.090877,42.568126 Z M288.748028,28.0819024 L288.748028,29.6435136 L296.088028,29.6435136 L296.088028,26.0629215 L288.748028,26.0629215 L288.748028,28.0819024 Z M308.788942,48.9777136 L308.788942,39.9343319 C308.788942,36.8267826 310.451004,36.3152695 312.437214,36.3152695 L326.018672,36.3152695 L326.018672,32.6570243 L308.630074,32.6570243 C304.65053,32.6570243 301.425432,35.8465012 301.425432,39.7754636 L301.425432,49.1301702 C301.425432,53.0591326 304.65053,56.2414854 308.630074,56.2414854 L326.018672,56.2414854 L326.018672,52.4599926 L312.437214,52.4599926 C310.142529,52.4599926 308.788942,52.0845505 308.788942,48.9777136 Z M350.775054,42.4099701 L341.094062,42.4099701 C338.468816,42.4049832 337.661652,41.2067031 337.661652,39.3565643 C337.661652,37.3504068 338.669717,36.3095702 341.094062,36.3159819 L355.789022,36.3159819 L355.789022,32.6577367 L337.128054,32.6577367 C333.322339,32.6577367 330.319514,35.4831701 330.204103,39.3565643 C330.085842,43.1715406 333.320914,46.0397188 337.128054,46.0397188 L347.390375,46.0397188 C348.824464,46.0397188 350.237894,47.2807438 350.232194,49.255555 C350.215809,51.2146931 348.825889,52.4179602 347.390375,52.460705 L330.040248,52.460705 L330.040248,56.2486095 L350.775054,56.2486095 C354.097039,56.1830675 357.713965,54.5523521 357.713965,49.255555 C357.713965,44.8485628 354.524488,42.4804991 350.775054,42.4099701 Z M130.897774,44.139711 L130.897774,52.4592802 L118.884339,52.4592802 C117.489433,52.4863519 116.478518,51.484698 116.478518,50.2066275 L116.478518,46.5156113 C116.478518,45.2047697 117.554975,44.1375738 118.884339,44.1375738 L130.897774,44.1389986 L130.897774,44.139711 Z M116.434348,56.2486095 L138.303317,56.2486095 L138.303317,39.826045 C138.303317,35.8749977 135.186506,32.6584491 131.132158,32.6584491 L112.196198,32.6584491 L112.196198,36.3166943 L128.462031,36.3166943 C130.295785,36.3166943 130.897774,36.8054102 130.906323,38.2053035 L130.906323,40.4237603 L116.424374,40.4237603 C112.196198,40.4237603 109.319471,44.1411358 109.229707,47.0306865 C109.186962,48.5808991 109.21902,48.668526 109.229707,49.1152095 C109.392849,55.2754522 114.80292,56.335524 116.434348,56.2493219 L116.434348,56.2486095 Z" id="Shape" fill="#FFFFFF" fill-rule="nonzero"></path>
        </g>
    </g>
</svg>